M48
METRIC,LZ,000.000
;FILE_FORMAT=3:3
;TYPE=PLATED
;Layer: PTH_Through
;EasyEDA v6.5.40, 2024-07-29 16:52:19
;dde3050a7ee44abca438c5715634e7ed,10
;Gerber Generator version 0.2
;Holesize 1 = 0.310 mm
T01C0.310
;Holesize 2 = 0.701 mm
T02C0.701
;Holesize 3 = 0.813 mm
T03C0.813
;Holesize 4 = 0.910 mm
T04C0.910
;Holesize 5 = 0.915 mm
T05C0.915
;Holesize 6 = 1.000 mm
T06C1.000
;Holesize 7 = 1.016 mm
T07C1.016
;Holesize 8 = 1.501 mm
T08C1.501
;Holesize 9 = 1.701 mm
T09C1.701
;Holesize 10 = 3.000 mm
T10C3.000
%
G05
G90
T01
X016764Y-010160
X-015621Y-021590
X033444Y001651
X-021336Y036068
X-015621Y036068
X-025400Y-021590
X-016891Y-021590
X-007620Y037338
X031750Y001651
X017018Y001651
X030099Y001651
T02
X-004615Y042926
X005885Y042926
X-004615Y039497
X005885Y039497
X022944Y007493
X033444Y007493
X033444Y012319
X022944Y012319
X017780Y-032342
X017780Y-042842
X021590Y-029040
X021590Y-039540
T03
X006353Y-045720G85X006347Y-045720
X003813Y-045720G85X003807Y-045720
X-006353Y-045720G85X-006347Y-045720
X-003813Y-045720G85X-003807Y-045720
T04
X-010153Y-010928
X-012693Y-010928
X-012693Y-008388
X-010153Y-008388
X-012693Y-005848
X-010153Y-005848
X-012693Y-003308
X-010153Y-003308
X-012693Y-000768
X-010153Y-000768
X-012693Y001772
X-010153Y001772
X-012693Y004312
X-010153Y004312
X-012693Y006852
X-010153Y006852
X-012693Y009392
X-010153Y009392
X-012693Y011932
X-010153Y011932
X-012693Y014472
X-010153Y014473
X-012693Y017012
X-010153Y017012
X-012693Y019552
X-010153Y019552
X-012693Y022092
X-010153Y022093
X-012693Y024632
X-010153Y024632
X-012693Y027172
X-010153Y027172
X-012693Y029712
X-010153Y029712
X-012693Y032252
X-010153Y032252
X-012693Y034792
X-010153Y034792
X-012693Y037332
X-010153Y037333
T05
X-018261Y-026670G85X-020347Y-026670
X-018261Y-032670G85X-020347Y-032670
X-023804Y-030713G85X-023804Y-028627
X-031369Y-006350
X-031369Y-003810
X-031369Y-001270
X-031369Y001270
X-031369Y003810
X-031369Y006350
X-031369Y008890
X-031369Y011430
X-031369Y013970
X-031369Y016510
X042037Y-012446
X039497Y-012446
X036957Y-012446
X034417Y-012446
X031877Y-012446
X029337Y-012446
X026797Y-012446
X024257Y-012446
X021717Y-012446
X019177Y-012446
X-018415Y-014732
X-018415Y-012192
X-018415Y-009652
X-018415Y-007112
X-018415Y-004572
X-018415Y-002032
X-023749Y021209
X-023749Y018669
X-023749Y016129
X-023749Y013589
X-023749Y011049
X-023749Y008509
X-000381Y-034925
X002159Y-034925
X004699Y-034925
X007239Y-034925
X-005461Y-022225
X-000381Y-022225
X007239Y-022225
X012319Y-022225
T06
X040640Y-003800
X040640Y003800
X-040640Y-003800
X-040640Y003800
X001180Y-039243
X003720Y-039243
X-001360Y-039243
X-003900Y-039243
X031372Y021209G85X031366Y021209
X031372Y018669G85X031366Y018669
X031372Y023749G85X031366Y023749
X-019304Y032258
X-019304Y029718
X-019304Y027178
X-019304Y024638
T07
X020193Y018669
X020193Y021209
X020193Y023749
X025654Y018669
X025654Y021209
X025654Y023749
T08
X012573Y-005461
X-004953Y-005461
X012573Y034671
X-004953Y034671
T09
X-012700Y-022265
X-012700Y-027305
X-012700Y-032345
T10
X011542Y-015964
X011542Y042037
X-011458Y042037
X-011458Y-015964
M30
