G04 Layer: TopLayer*
G04 EasyEDA v6.5.40, 2024-07-29 16:52:19*
G04 dde3050a7ee44abca438c5715634e7ed,10*
G04 Gerber Generator version 0.2*
G04 Scale: 100 percent, Rotated: No, Reflected: No *
G04 Dimensions in millimeters *
G04 leading zeros omitted , absolute positions ,4 integer and 5 decimal *
%FSLAX45Y45*%
%MOMM*%

%AMMACRO1*21,1,$1,$2,0,0,$3*%
%ADD10C,0.2540*%
%ADD11C,1.8000*%
%ADD12C,1.7000*%
%ADD13C,6.0000*%
%ADD14MACRO1,1.6998X1.6998X-90.0000*%
%ADD15C,1.6000*%
%ADD16R,1.6000X1.6000*%
%ADD17C,1.3208*%
%ADD18MACRO1,1.6X3.5X-90.0000*%
%ADD19MACRO1,1.6X3.5X0.0000*%
%ADD20C,1.5240*%
%ADD21C,1.8796*%
%ADD22R,1.5240X1.5240*%
%ADD23R,1.7000X1.7000*%
%ADD24C,1.4000*%
%ADD25C,2.0320*%
%ADD26C,2.0000*%
%ADD27R,2.0000X2.0000*%
%ADD28R,2.5000X2.5000*%
%ADD29C,2.5000*%
%ADD30C,0.6200*%
%ADD31C,0.0100*%

%LPD*%
D10*
X4203700Y-1244600D02*
G01*
X4267200Y-1181100D01*
X4267200Y419100D01*
X4140200Y546100D01*
X2362200Y546100D01*
X2298700Y609600D01*
X2298700Y744981D01*
X2294381Y749300D01*
X3949700Y-1244600D02*
G01*
X3949700Y-494284D01*
X4064000Y-379984D01*
X-461490Y4292600D02*
G01*
X-482600Y4292600D01*
X-698500Y4508500D01*
X-2374900Y1104900D02*
G01*
X-2032558Y1447241D01*
X-1269260Y1447241D01*
X2019300Y2120900D02*
G01*
X-165100Y2120900D01*
X-495300Y2451100D01*
X-495300Y3467100D01*
X-38100Y-3492500D02*
G01*
X-38100Y-3035300D01*
X457200Y-2540000D01*
X1320800Y-2540000D01*
X1752600Y-2108200D01*
X2184400Y-2108200D01*
X2425700Y-1866900D01*
X2425700Y-1244600D01*
X215900Y-3492500D02*
G01*
X215900Y-2870200D01*
X482600Y-2603500D01*
X1346200Y-2603500D01*
X1778000Y-2171700D01*
X2209800Y-2171700D01*
X2679700Y-1701800D01*
X2679700Y-1244600D01*
X-4064000Y-379984D02*
G01*
X-3136900Y-381000D01*
X-3136900Y-635000D02*
G01*
X-3136900Y-1028700D01*
X-2463800Y-1701800D01*
X-1739900Y-1701800D01*
X-1587500Y-1549400D01*
X-1587500Y-711200D01*
X-1841500Y-457200D01*
X-3136900Y127000D02*
G01*
X-3136900Y381000D01*
X-3136900Y-127000D02*
G01*
X-2984500Y25400D01*
X-2984500Y482600D01*
X-3136900Y635000D01*
X-4064000Y-379984D02*
G01*
X-4064000Y-1155700D01*
X-3454400Y-1765300D01*
X-1727200Y-1765300D01*
X-1536700Y-1574800D01*
X-1536700Y-598170D01*
X-1269237Y-330707D01*
X-389889Y-3924300D02*
G01*
X-952500Y-3361689D01*
X-952500Y-2705100D01*
X-1117600Y-2540000D01*
X-1358900Y-2540000D01*
X-1689100Y-2209800D01*
X-1689100Y-2159000D01*
X-389889Y-3924300D02*
G01*
X-389889Y-3780789D01*
X-254000Y-3644900D01*
X863600Y-3644900D01*
X1295400Y-3213100D01*
X1295400Y-2743200D01*
X1803400Y-2235200D01*
X2781300Y-2235200D01*
X3441700Y-1574800D01*
X3441700Y-1244600D01*
X-135889Y-3924300D02*
G01*
X-135889Y-3806189D01*
X-50800Y-3721100D01*
X876300Y-3721100D01*
X1358900Y-3238500D01*
X1358900Y-2768600D01*
X1828800Y-2298700D01*
X2806700Y-2298700D01*
X3695700Y-1409700D01*
X3695700Y-1244600D01*
X-135991Y-3924300D02*
G01*
X-288391Y-4076700D01*
X-482600Y-4076700D01*
X-939800Y-3619500D01*
X-2171700Y-3619500D01*
X-2540000Y-3251200D01*
X-2540000Y-2159000D01*
X-3136900Y381000D02*
G01*
X-3314700Y558800D01*
X-3314700Y1739900D01*
X-2387600Y2667000D01*
X-2387600Y3352800D01*
X-2133600Y3606800D01*
X-3136900Y635000D02*
G01*
X-2832100Y635000D01*
X-2679700Y787400D01*
X-2679700Y1168400D01*
X-2489200Y1358900D01*
X-2374900Y1358900D01*
X-2374900Y1612900D02*
G01*
X-2590800Y1828800D01*
X-2590800Y2260600D01*
X-2235200Y2616200D01*
X-2235200Y3302000D01*
X-2095500Y3441700D01*
X-1727200Y3441700D01*
X-1562100Y3606800D01*
X4064000Y379984D02*
G01*
X2299715Y379984D01*
X1663700Y1016000D01*
X1663700Y1727200D01*
X1371600Y2019300D01*
X-215900Y2019300D01*
X-405892Y2209292D01*
X-1015237Y2209292D01*
X-215900Y2019300D02*
G01*
X-76200Y1879600D01*
X-76200Y-1270000D01*
X-812800Y-2006600D01*
X-3606800Y-2006600D01*
X-4254500Y-1358900D01*
X-4254500Y189484D01*
X-4064000Y379984D01*
X1676400Y-1016000D02*
G01*
X1676400Y-2095500D01*
X1295400Y-2476500D01*
X-1333500Y-2476500D01*
X-1562100Y-2247900D01*
X-1562100Y-2159000D01*
X-2374900Y1358900D02*
G01*
X-2667000Y1651000D01*
X-2667000Y2286000D01*
X-2311400Y2641600D01*
X-2311400Y3327400D01*
X-2120900Y3517900D01*
X-1752600Y3517900D01*
X-1663700Y3606800D01*
X-1663700Y4318000D01*
X-1358900Y4622800D01*
X-812800Y4622800D01*
X-698500Y4508500D01*
X-698500Y3670300D01*
X-863600Y3505200D01*
X-863600Y3376929D01*
X-1015237Y3225292D01*
X-1562100Y3606800D02*
G01*
X-1562100Y4318000D01*
X-1333500Y4546600D01*
X-838200Y4546600D01*
X-762000Y4470400D01*
X-762000Y3733800D01*
X-1015237Y3479292D01*
X3344418Y165100D02*
G01*
X3344418Y-325881D01*
X3187700Y-482600D01*
X2514600Y-482600D01*
X2171700Y-825500D01*
X2171700Y-1244600D01*
X1701800Y165100D02*
G01*
X3009900Y165100D01*
X-1841500Y-457200D02*
G01*
X-2374900Y76200D01*
X-2374900Y850900D01*
X-1841500Y-965200D02*
G01*
X-2578100Y-228600D01*
X-2578100Y1155700D01*
X-2374900Y1358900D01*
X-1841500Y-203200D02*
G01*
X-1713941Y-330758D01*
X-1269263Y-330758D01*
X-1930400Y2717800D02*
G01*
X-2070100Y2717800D01*
X-2133600Y2781300D01*
X-2133600Y3302000D01*
X-2070100Y3365500D01*
X-1638300Y3365500D01*
X-1600200Y3327400D01*
X-1600200Y3022600D01*
X-1548892Y2971292D01*
X-1269237Y2971292D01*
D11*
G01*
X4064000Y-379984D03*
G01*
X4064000Y380009D03*
G01*
X-4064000Y-379984D03*
G01*
X-4064000Y380009D03*
D12*
G01*
X-1015263Y-1092758D03*
D13*
G01*
X1154252Y-1596389D03*
G01*
X1154252Y4203700D03*
D12*
G01*
X-1269263Y-1092758D03*
G01*
X-1269263Y-838758D03*
G01*
X-1015263Y-838758D03*
G01*
X-1269263Y-584758D03*
G01*
X-1015263Y-584758D03*
G01*
X-1269263Y-330758D03*
G01*
X-1015263Y-330758D03*
G01*
X-1269263Y-76758D03*
G01*
X-1015263Y-76758D03*
G01*
X-1269263Y177241D03*
G01*
X-1015263Y177241D03*
G01*
X-1269263Y431241D03*
G01*
X-1015263Y431241D03*
G01*
X-1269263Y685241D03*
G01*
X-1015263Y685241D03*
G01*
X-1269263Y939241D03*
G01*
X-1015263Y939241D03*
G01*
X-1269263Y1193241D03*
G01*
X-1015263Y1193241D03*
G01*
X-1269263Y1447241D03*
G01*
X-1015263Y1447266D03*
G01*
X-1269263Y1701241D03*
G01*
X-1015263Y1701241D03*
G01*
X-1269263Y1955241D03*
G01*
X-1015263Y1955241D03*
G01*
X-1269263Y2209241D03*
G01*
X-1015263Y2209266D03*
G01*
X-1269263Y2463241D03*
G01*
X-1015263Y2463241D03*
G01*
X-1269263Y2717241D03*
G01*
X-1015263Y2717241D03*
G01*
X-1269263Y2971241D03*
G01*
X-1015263Y2971241D03*
G01*
X-1269263Y3225241D03*
G01*
X-1015263Y3225241D03*
G01*
X-1269263Y3479241D03*
G01*
X-1015263Y3479241D03*
G01*
X-1269263Y3733241D03*
D14*
G01*
X-1015268Y3733264D03*
D13*
G01*
X-1145743Y4203700D03*
G01*
X-1145743Y-1596389D03*
D15*
G01*
X118008Y-3924300D03*
D16*
G01*
X372008Y-3924300D03*
D15*
G01*
X-135991Y-3924300D03*
G01*
X-389991Y-3924300D03*
D17*
G01*
X635000Y-4572000D03*
G01*
X381000Y-4572000D03*
G01*
X-635000Y-4572000D03*
G01*
X-381000Y-4572000D03*
D18*
G01*
X-1930400Y-2667000D03*
G01*
X-1930400Y-3266998D03*
D19*
G01*
X-2380411Y-2966999D03*
D20*
G01*
X-3136900Y-635000D03*
G01*
X-3136900Y-381000D03*
G01*
X-3136900Y-127000D03*
G01*
X-3136900Y127000D03*
G01*
X-3136900Y381000D03*
G01*
X-3136900Y635000D03*
G01*
X-3136900Y889000D03*
G01*
X-3136900Y1143000D03*
G01*
X-3136900Y1397000D03*
G01*
X-3136900Y1651000D03*
D21*
G01*
X2019300Y1866900D03*
G01*
X2019300Y2120900D03*
G01*
X2019300Y2374900D03*
G01*
X2565400Y1866900D03*
G01*
X2565400Y2120900D03*
G01*
X2565400Y2374900D03*
D22*
G01*
X4203700Y-1244600D03*
D20*
G01*
X3949700Y-1244600D03*
G01*
X3695700Y-1244600D03*
G01*
X3441700Y-1244600D03*
G01*
X3187700Y-1244600D03*
G01*
X2933700Y-1244600D03*
G01*
X2679700Y-1244600D03*
G01*
X2425700Y-1244600D03*
G01*
X2171700Y-1244600D03*
G01*
X1917700Y-1244600D03*
D12*
G01*
X3136900Y2120900D03*
D23*
G01*
X3136900Y1866900D03*
D12*
G01*
X3136900Y2374900D03*
D24*
G01*
X-461492Y4292600D03*
G01*
X588492Y4292600D03*
G01*
X-461492Y3949700D03*
G01*
X588492Y3949700D03*
G01*
X2294407Y749300D03*
G01*
X3344392Y749300D03*
G01*
X3344392Y1231900D03*
G01*
X2294407Y1231900D03*
G01*
X1778000Y-3234207D03*
G01*
X1778000Y-4284192D03*
G01*
X2159000Y-2904007D03*
G01*
X2159000Y-3953992D03*
D20*
G01*
X-1841500Y-1473200D03*
G01*
X-1841500Y-1219200D03*
G01*
X-1841500Y-965200D03*
G01*
X-1841500Y-711200D03*
G01*
X-1841500Y-457200D03*
G01*
X-1841500Y-203200D03*
G01*
X-2374900Y2120900D03*
G01*
X-2374900Y1866900D03*
G01*
X-2374900Y1612900D03*
G01*
X-2374900Y1358900D03*
G01*
X-2374900Y1104900D03*
G01*
X-2374900Y850900D03*
G01*
X-38100Y-3492500D03*
G01*
X215900Y-3492500D03*
G01*
X469900Y-3492500D03*
G01*
X723900Y-3492500D03*
D25*
G01*
X-546100Y-2222500D03*
G01*
X-38100Y-2222500D03*
G01*
X723900Y-2222500D03*
G01*
X1231900Y-2222500D03*
D26*
G01*
X-1930400Y3225800D03*
G01*
X-1930400Y2971800D03*
G01*
X-1930400Y2717800D03*
D27*
G01*
X-1930400Y2463800D03*
D28*
G01*
X1257300Y-546100D03*
G01*
X-495300Y-546100D03*
G01*
X1257300Y3467100D03*
G01*
X-495300Y3467100D03*
D29*
G01*
X-1270000Y-2226513D03*
G01*
X-1270000Y-2730500D03*
G01*
X-1270000Y-3234512D03*
D30*
G01*
X1676400Y-1016000D03*
G01*
X-1562100Y-2159000D03*
G01*
X3344392Y165100D03*
G01*
X-2133600Y3606800D03*
G01*
X-1562100Y3606800D03*
G01*
X-2540000Y-2159000D03*
G01*
X-1689100Y-2159000D03*
G01*
X-762000Y3733800D03*
G01*
X3175000Y165100D03*
G01*
X1701800Y165100D03*
G01*
X3009900Y165100D03*
M02*
