G04 Layer: BottomSolderMaskLayer*
G04 EasyEDA v6.5.40, 2024-07-29 16:52:19*
G04 dde3050a7ee44abca438c5715634e7ed,10*
G04 Gerber Generator version 0.2*
G04 Scale: 100 percent, Rotated: No, Reflected: No *
G04 Dimensions in millimeters *
G04 leading zeros omitted , absolute positions ,4 integer and 5 decimal *
%FSLAX45Y45*%
%MOMM*%

%AMMACRO1*1,1,$1,$2,$3*1,1,$1,$4,$5*1,1,$1,0-$2,0-$3*1,1,$1,0-$4,0-$5*20,1,$1,$2,$3,$4,$5,0*20,1,$1,$4,$5,0-$2,0-$3,0*20,1,$1,0-$2,0-$3,0-$4,0-$5,0*20,1,$1,0-$4,0-$5,$2,$3,0*4,1,4,$2,$3,$4,$5,0-$2,0-$3,0-$4,0-$5,$2,$3,0*%
%ADD10C,1.9016*%
%ADD11C,1.9032*%
%ADD12C,6.2032*%
%ADD13MACRO1,0.2032X-0.8499X0.8499X-0.8499X-0.8499*%
%ADD14C,1.7000*%
%ADD15MACRO1,0.1X-0.8X0.8X0.8X0.8*%
%ADD16C,1.4224*%
%ADD17R,3.6016X1.7016*%
%ADD18MACRO1,0.2032X0.8X1.75X-0.8X1.75*%
%ADD19C,1.7272*%
%ADD20C,1.9812*%
%ADD21MACRO1,0.1016X0.762X0.762X0.762X-0.762*%
%ADD22C,1.6256*%
%ADD23C,1.8016*%
%ADD24MACRO1,0.1016X0.85X-0.85X-0.85X-0.85*%
%ADD25C,1.5016*%
%ADD26C,2.1336*%
%ADD27C,2.1016*%
%ADD28MACRO1,0.1016X1X1X1X-1*%
%ADD29R,2.7032X2.7032*%
%ADD30C,2.6016*%

%LPD*%
D10*
G01*
X4064000Y-379984D03*
G01*
X4064000Y380009D03*
G01*
X-4064000Y-379984D03*
G01*
X-4064000Y380009D03*
D11*
G01*
X-1015263Y-1092758D03*
D12*
G01*
X1154252Y-1596389D03*
G01*
X1154252Y4203700D03*
D11*
G01*
X-1269263Y-1092758D03*
G01*
X-1269263Y-838758D03*
G01*
X-1015263Y-838758D03*
G01*
X-1269263Y-584758D03*
G01*
X-1015263Y-584758D03*
G01*
X-1269263Y-330758D03*
G01*
X-1015263Y-330758D03*
G01*
X-1269263Y-76758D03*
G01*
X-1015263Y-76758D03*
G01*
X-1269263Y177241D03*
G01*
X-1015263Y177241D03*
G01*
X-1269263Y431241D03*
G01*
X-1015263Y431241D03*
G01*
X-1269263Y685241D03*
G01*
X-1015263Y685241D03*
G01*
X-1269263Y939241D03*
G01*
X-1015263Y939241D03*
G01*
X-1269263Y1193241D03*
G01*
X-1015263Y1193241D03*
G01*
X-1269263Y1447241D03*
G01*
X-1015263Y1447266D03*
G01*
X-1269263Y1701241D03*
G01*
X-1015263Y1701241D03*
G01*
X-1269263Y1955241D03*
G01*
X-1015263Y1955241D03*
G01*
X-1269263Y2209241D03*
G01*
X-1015263Y2209266D03*
G01*
X-1269263Y2463241D03*
G01*
X-1015263Y2463241D03*
G01*
X-1269263Y2717241D03*
G01*
X-1015263Y2717241D03*
G01*
X-1269263Y2971241D03*
G01*
X-1015263Y2971241D03*
G01*
X-1269263Y3225241D03*
G01*
X-1015263Y3225241D03*
G01*
X-1269263Y3479241D03*
G01*
X-1015263Y3479241D03*
G01*
X-1269263Y3733241D03*
D13*
G01*
X-1015268Y3733264D03*
D12*
G01*
X-1145743Y4203700D03*
G01*
X-1145743Y-1596389D03*
D14*
G01*
X118008Y-3924300D03*
D15*
G01*
X372008Y-3924300D03*
D14*
G01*
X-135991Y-3924300D03*
G01*
X-389991Y-3924300D03*
D16*
G01*
X635000Y-4572000D03*
G01*
X381000Y-4572000D03*
G01*
X-635000Y-4572000D03*
G01*
X-381000Y-4572000D03*
D17*
G01*
X-1930400Y-2667000D03*
G01*
X-1930400Y-3266998D03*
D18*
G01*
X-2380411Y-2966999D03*
D19*
G01*
X-3136900Y-635000D03*
G01*
X-3136900Y-381000D03*
G01*
X-3136900Y-127000D03*
G01*
X-3136900Y127000D03*
G01*
X-3136900Y381000D03*
G01*
X-3136900Y635000D03*
G01*
X-3136900Y889000D03*
G01*
X-3136900Y1143000D03*
G01*
X-3136900Y1397000D03*
G01*
X-3136900Y1651000D03*
D20*
G01*
X2019300Y1866900D03*
G01*
X2019300Y2120900D03*
G01*
X2019300Y2374900D03*
G01*
X2565400Y1866900D03*
G01*
X2565400Y2120900D03*
G01*
X2565400Y2374900D03*
D21*
G01*
X4203700Y-1244600D03*
D22*
G01*
X3949700Y-1244600D03*
G01*
X3695700Y-1244600D03*
G01*
X3441700Y-1244600D03*
G01*
X3187700Y-1244600D03*
G01*
X2933700Y-1244600D03*
G01*
X2679700Y-1244600D03*
G01*
X2425700Y-1244600D03*
G01*
X2171700Y-1244600D03*
G01*
X1917700Y-1244600D03*
D23*
G01*
X3136900Y2120900D03*
D24*
G01*
X3136898Y1866901D03*
D23*
G01*
X3136900Y2374900D03*
D25*
G01*
X-461492Y4292600D03*
G01*
X588492Y4292600D03*
G01*
X-461492Y3949700D03*
G01*
X588492Y3949700D03*
G01*
X2294407Y749300D03*
G01*
X3344392Y749300D03*
G01*
X3344392Y1231900D03*
G01*
X2294407Y1231900D03*
G01*
X1778000Y-3234207D03*
G01*
X1778000Y-4284192D03*
G01*
X2159000Y-2904007D03*
G01*
X2159000Y-3953992D03*
D22*
G01*
X-1841500Y-1473200D03*
G01*
X-1841500Y-1219200D03*
G01*
X-1841500Y-965200D03*
G01*
X-1841500Y-711200D03*
G01*
X-1841500Y-457200D03*
G01*
X-1841500Y-203200D03*
G01*
X-2374900Y2120900D03*
G01*
X-2374900Y1866900D03*
G01*
X-2374900Y1612900D03*
G01*
X-2374900Y1358900D03*
G01*
X-2374900Y1104900D03*
G01*
X-2374900Y850900D03*
G01*
X-38100Y-3492500D03*
G01*
X215900Y-3492500D03*
G01*
X469900Y-3492500D03*
G01*
X723900Y-3492500D03*
D26*
G01*
X-546100Y-2222500D03*
G01*
X-38100Y-2222500D03*
G01*
X723900Y-2222500D03*
G01*
X1231900Y-2222500D03*
D27*
G01*
X-1930400Y3225800D03*
G01*
X-1930400Y2971800D03*
G01*
X-1930400Y2717800D03*
D28*
G01*
X-1930400Y2463800D03*
D29*
G01*
X1257300Y-546100D03*
G01*
X-495300Y-546100D03*
G01*
X1257300Y3467100D03*
G01*
X-495300Y3467100D03*
D30*
G01*
X-1270000Y-2226513D03*
G01*
X-1270000Y-2730500D03*
G01*
X-1270000Y-3234512D03*
M02*
