G04 Layer: BottomLayer*
G04 EasyEDA v6.5.40, 2024-07-29 16:52:19*
G04 dde3050a7ee44abca438c5715634e7ed,10*
G04 Gerber Generator version 0.2*
G04 Scale: 100 percent, Rotated: No, Reflected: No *
G04 Dimensions in millimeters *
G04 leading zeros omitted , absolute positions ,4 integer and 5 decimal *
%FSLAX45Y45*%
%MOMM*%

%AMMACRO1*21,1,$1,$2,0,0,$3*%
%ADD10C,0.2540*%
%ADD11C,1.8000*%
%ADD12C,1.7000*%
%ADD13C,6.0000*%
%ADD14MACRO1,1.6998X1.6998X-90.0000*%
%ADD15C,1.6000*%
%ADD16R,1.6000X1.6000*%
%ADD17C,1.3208*%
%ADD18MACRO1,1.6X3.5X-90.0000*%
%ADD19MACRO1,1.6X3.5X0.0000*%
%ADD20C,1.5240*%
%ADD21C,1.8796*%
%ADD22R,1.5240X1.5240*%
%ADD23R,1.7000X1.7000*%
%ADD24C,1.4000*%
%ADD25C,2.0320*%
%ADD26C,2.0000*%
%ADD27R,2.0000X2.0000*%
%ADD28R,2.5000X2.5000*%
%ADD29C,2.5000*%
%ADD30C,0.6200*%
%ADD31C,0.0134*%

%LPD*%
D10*
X3344418Y749300D02*
G01*
X3022600Y749300D01*
X2857500Y914400D01*
X2857500Y1993900D01*
X2984500Y2120900D01*
X3136900Y2120900D01*
X2294409Y749300D02*
G01*
X2294409Y1231894D01*
X3344418Y1231900D02*
G01*
X3344418Y1354581D01*
X3136900Y1562100D01*
X3136900Y1866900D01*
X2294381Y1231900D02*
G01*
X2294381Y1849881D01*
X2565400Y2120900D01*
X2565400Y2374900D02*
G01*
X3136900Y2374900D01*
X2565400Y1866900D02*
G01*
X2565400Y165100D01*
X2819400Y-88900D01*
X4165600Y-88900D01*
X4330700Y-254000D01*
X4330700Y-520700D01*
X4178300Y-673100D01*
X2019300Y-673100D01*
X1676400Y-1016000D01*
X4064000Y-379984D02*
G01*
X2754884Y-379984D01*
X1257300Y1117600D01*
X1257300Y3467100D01*
X2019300Y2374900D02*
G01*
X2019300Y3225800D01*
X1778000Y3467100D01*
X1257300Y3467100D01*
X2565400Y2120900D02*
G01*
X2019300Y2120900D01*
X2565400Y2374900D02*
G01*
X2019300Y2374900D01*
X588495Y3949700D02*
G01*
X588495Y3649195D01*
X406400Y3467100D01*
X-495300Y3467100D01*
X588495Y3949700D02*
G01*
X588495Y4292600D01*
X588492Y4292600D02*
G01*
X588492Y4326407D01*
X330200Y4584700D01*
X-1346200Y4584700D01*
X-1612900Y4318000D01*
X-1612900Y3848100D01*
X-1498600Y3733800D01*
X-1269260Y3733241D01*
X-1930400Y3225800D02*
G01*
X-1930394Y3225794D01*
X-1269794Y3225794D01*
X723900Y-2222500D02*
G01*
X723900Y-876300D01*
X393700Y-546100D01*
X-495300Y-546100D01*
X-1270000Y-2226513D02*
G01*
X-550113Y-2226513D01*
X-546100Y-2222500D01*
X-1270000Y-2730487D02*
G01*
X-114287Y-2730487D01*
X-38100Y-2654300D01*
X-38100Y-2222500D01*
X-1930400Y-2667000D02*
G01*
X-1837499Y-2667000D01*
X-1270000Y-3234499D01*
X-2380411Y-2966999D02*
G01*
X-2143909Y-3203501D01*
X-1955800Y-3203501D01*
X-2380411Y-2966999D02*
G01*
X-2380411Y-2583611D01*
X-2235200Y-2438400D01*
X-1562087Y-2438400D01*
X-1270000Y-2730487D01*
X-1270000Y-3234499D02*
G01*
X-1269707Y-3234207D01*
X1778000Y-3234207D01*
X635000Y-4572000D02*
G01*
X922809Y-4284190D01*
X1778000Y-4284190D01*
X372008Y-3924300D02*
G01*
X372008Y-4563008D01*
X381000Y-4572000D01*
X-381000Y-4572000D02*
G01*
X381000Y-4572000D01*
X-635000Y-4572000D02*
G01*
X-635000Y-4660900D01*
X-584200Y-4711700D01*
X673100Y-4711700D01*
X1003300Y-4381500D01*
X1651000Y-4381500D01*
X1727200Y-4457700D01*
X1828800Y-4457700D01*
X2159000Y-4127500D01*
X2159000Y-3953992D01*
X2159000Y-2904007D02*
G01*
X884707Y-2904007D01*
X723900Y-2743200D01*
X723900Y-2222500D01*
X469900Y-3492500D02*
G01*
X723900Y-3492500D01*
X372008Y-3924300D02*
G01*
X372008Y-3590391D01*
X469900Y-3492500D01*
X-2540000Y-2159000D02*
G01*
X-2540000Y-1257300D01*
X-2247900Y-965200D01*
X-1841500Y-965200D01*
X-1562100Y-2159000D02*
G01*
X-1562100Y-215900D01*
X-1422907Y-76707D01*
X-1269237Y-76707D01*
X-1689100Y-2159000D02*
G01*
X-1689100Y-863600D01*
X-1841500Y-711200D01*
X723900Y-3492500D02*
G01*
X1803400Y-3492500D01*
X1968500Y-3327400D01*
X1968500Y-3149600D01*
X1790700Y-2971800D01*
X850900Y-2971800D01*
X203200Y-2324100D01*
X203200Y-1397000D01*
X-101600Y-1092200D01*
X-1015237Y-1092707D01*
X-1930400Y2463800D02*
G01*
X-2273300Y2806700D01*
X-2273300Y3314700D01*
X-2108707Y3479292D01*
X-1269237Y3479292D01*
X-2133600Y3606800D02*
G01*
X-1562100Y3606800D01*
X1257300Y-546100D02*
G01*
X1435100Y-546100D01*
X1562100Y-673100D01*
X1562100Y-2057400D01*
X1397000Y-2222500D01*
X1231900Y-2222500D01*
X2019300Y1866900D02*
G01*
X2019300Y533400D01*
X2743200Y-190500D01*
X4140200Y-190500D01*
X4241800Y-292100D01*
X4241800Y-482600D01*
X4152900Y-571500D01*
X2768600Y-571500D01*
X2527808Y-330707D01*
X-1015237Y-330707D01*
X-1015237Y2717292D02*
G01*
X12192Y2717292D01*
X762000Y3467100D01*
X1257300Y3467100D01*
X118110Y-3924300D02*
G01*
X118110Y-3750310D01*
X50800Y-3683000D01*
X-2197100Y-3683000D01*
X-2628900Y-3251200D01*
X-2628900Y2273300D01*
X-2438400Y2463800D01*
X-1930400Y2463800D01*
X-461518Y3949700D02*
G01*
X-647700Y3949700D01*
X-762000Y3835400D01*
X-762000Y3733800D01*
X-1015260Y1955241D02*
G01*
X-570941Y1955241D01*
X-279400Y1663700D01*
X-279400Y711200D01*
X266700Y165100D01*
X1701800Y165100D01*
X-2374900Y850900D02*
G01*
X-1930400Y1295400D01*
X-1930400Y2463800D01*
X-1841500Y-711200D02*
G01*
X-2019300Y-711200D01*
X-2527300Y-203200D01*
X-2527300Y1460500D01*
X-2374900Y1612900D01*
X3344392Y749300D02*
G01*
X3344392Y601192D01*
X3175000Y431800D01*
X3175000Y165100D01*
X-1930400Y2971800D02*
G01*
X-1803400Y2971800D01*
X-1549400Y2717800D01*
X-1269237Y2717292D01*
D11*
G01*
X4064000Y-379984D03*
G01*
X4064000Y380009D03*
G01*
X-4064000Y-379984D03*
G01*
X-4064000Y380009D03*
D12*
G01*
X-1015263Y-1092758D03*
D13*
G01*
X1154252Y-1596389D03*
G01*
X1154252Y4203700D03*
D12*
G01*
X-1269263Y-1092758D03*
G01*
X-1269263Y-838758D03*
G01*
X-1015263Y-838758D03*
G01*
X-1269263Y-584758D03*
G01*
X-1015263Y-584758D03*
G01*
X-1269263Y-330758D03*
G01*
X-1015263Y-330758D03*
G01*
X-1269263Y-76758D03*
G01*
X-1015263Y-76758D03*
G01*
X-1269263Y177241D03*
G01*
X-1015263Y177241D03*
G01*
X-1269263Y431241D03*
G01*
X-1015263Y431241D03*
G01*
X-1269263Y685241D03*
G01*
X-1015263Y685241D03*
G01*
X-1269263Y939241D03*
G01*
X-1015263Y939241D03*
G01*
X-1269263Y1193241D03*
G01*
X-1015263Y1193241D03*
G01*
X-1269263Y1447241D03*
G01*
X-1015263Y1447266D03*
G01*
X-1269263Y1701241D03*
G01*
X-1015263Y1701241D03*
G01*
X-1269263Y1955241D03*
G01*
X-1015263Y1955241D03*
G01*
X-1269263Y2209241D03*
G01*
X-1015263Y2209266D03*
G01*
X-1269263Y2463241D03*
G01*
X-1015263Y2463241D03*
G01*
X-1269263Y2717241D03*
G01*
X-1015263Y2717241D03*
G01*
X-1269263Y2971241D03*
G01*
X-1015263Y2971241D03*
G01*
X-1269263Y3225241D03*
G01*
X-1015263Y3225241D03*
G01*
X-1269263Y3479241D03*
G01*
X-1015263Y3479241D03*
G01*
X-1269263Y3733241D03*
D14*
G01*
X-1015268Y3733264D03*
D13*
G01*
X-1145743Y4203700D03*
G01*
X-1145743Y-1596389D03*
D15*
G01*
X118008Y-3924300D03*
D16*
G01*
X372008Y-3924300D03*
D15*
G01*
X-135991Y-3924300D03*
G01*
X-389991Y-3924300D03*
D17*
G01*
X635000Y-4572000D03*
G01*
X381000Y-4572000D03*
G01*
X-635000Y-4572000D03*
G01*
X-381000Y-4572000D03*
D18*
G01*
X-1930400Y-2667000D03*
G01*
X-1930400Y-3266998D03*
D19*
G01*
X-2380411Y-2966999D03*
D20*
G01*
X-3136900Y-635000D03*
G01*
X-3136900Y-381000D03*
G01*
X-3136900Y-127000D03*
G01*
X-3136900Y127000D03*
G01*
X-3136900Y381000D03*
G01*
X-3136900Y635000D03*
G01*
X-3136900Y889000D03*
G01*
X-3136900Y1143000D03*
G01*
X-3136900Y1397000D03*
G01*
X-3136900Y1651000D03*
D21*
G01*
X2019300Y1866900D03*
G01*
X2019300Y2120900D03*
G01*
X2019300Y2374900D03*
G01*
X2565400Y1866900D03*
G01*
X2565400Y2120900D03*
G01*
X2565400Y2374900D03*
D22*
G01*
X4203700Y-1244600D03*
D20*
G01*
X3949700Y-1244600D03*
G01*
X3695700Y-1244600D03*
G01*
X3441700Y-1244600D03*
G01*
X3187700Y-1244600D03*
G01*
X2933700Y-1244600D03*
G01*
X2679700Y-1244600D03*
G01*
X2425700Y-1244600D03*
G01*
X2171700Y-1244600D03*
G01*
X1917700Y-1244600D03*
D12*
G01*
X3136900Y2120900D03*
D23*
G01*
X3136900Y1866900D03*
D12*
G01*
X3136900Y2374900D03*
D24*
G01*
X-461492Y4292600D03*
G01*
X588492Y4292600D03*
G01*
X-461492Y3949700D03*
G01*
X588492Y3949700D03*
G01*
X2294407Y749300D03*
G01*
X3344392Y749300D03*
G01*
X3344392Y1231900D03*
G01*
X2294407Y1231900D03*
G01*
X1778000Y-3234207D03*
G01*
X1778000Y-4284192D03*
G01*
X2159000Y-2904007D03*
G01*
X2159000Y-3953992D03*
D20*
G01*
X-1841500Y-1473200D03*
G01*
X-1841500Y-1219200D03*
G01*
X-1841500Y-965200D03*
G01*
X-1841500Y-711200D03*
G01*
X-1841500Y-457200D03*
G01*
X-1841500Y-203200D03*
G01*
X-2374900Y2120900D03*
G01*
X-2374900Y1866900D03*
G01*
X-2374900Y1612900D03*
G01*
X-2374900Y1358900D03*
G01*
X-2374900Y1104900D03*
G01*
X-2374900Y850900D03*
G01*
X-38100Y-3492500D03*
G01*
X215900Y-3492500D03*
G01*
X469900Y-3492500D03*
G01*
X723900Y-3492500D03*
D25*
G01*
X-546100Y-2222500D03*
G01*
X-38100Y-2222500D03*
G01*
X723900Y-2222500D03*
G01*
X1231900Y-2222500D03*
D26*
G01*
X-1930400Y3225800D03*
G01*
X-1930400Y2971800D03*
G01*
X-1930400Y2717800D03*
D27*
G01*
X-1930400Y2463800D03*
D28*
G01*
X1257300Y-546100D03*
G01*
X-495300Y-546100D03*
G01*
X1257300Y3467100D03*
G01*
X-495300Y3467100D03*
D29*
G01*
X-1270000Y-2226513D03*
G01*
X-1270000Y-2730500D03*
G01*
X-1270000Y-3234512D03*
D30*
G01*
X1676400Y-1016000D03*
G01*
X-1562100Y-2159000D03*
G01*
X3344392Y165100D03*
G01*
X-2133600Y3606800D03*
G01*
X-1562100Y3606800D03*
G01*
X-2540000Y-2159000D03*
G01*
X-1689100Y-2159000D03*
G01*
X-762000Y3733800D03*
G01*
X3175000Y165100D03*
G01*
X1701800Y165100D03*
G01*
X3009900Y165100D03*
M02*
