G04 Layer: BottomSilkscreenLayer*
G04 EasyEDA v6.5.40, 2024-07-29 16:52:19*
G04 dde3050a7ee44abca438c5715634e7ed,10*
G04 Gerber Generator version 0.2*
G04 Scale: 100 percent, Rotated: No, Reflected: No *
G04 Dimensions in millimeters *
G04 leading zeros omitted , absolute positions ,4 integer and 5 decimal *
%FSLAX45Y45*%
%MOMM*%

%ADD10C,0.1524*%
%ADD11C,0.2030*%
%ADD12C,0.3048*%
%ADD13C,0.2500*%
%ADD14C,0.2540*%
%ADD15C,0.0141*%

%LPD*%
D10*
X3300984Y12687D02*
G01*
X3409950Y12687D01*
X3300984Y12687D02*
G01*
X3300984Y-34048D01*
X3306063Y-49542D01*
X3311397Y-54876D01*
X3321811Y-59956D01*
X3332225Y-59956D01*
X3342640Y-54876D01*
X3347720Y-49542D01*
X3352800Y-34048D01*
X3352800Y12687D02*
G01*
X3352800Y-34048D01*
X3358134Y-49542D01*
X3363213Y-54876D01*
X3373627Y-59956D01*
X3389375Y-59956D01*
X3399790Y-54876D01*
X3404870Y-49542D01*
X3409950Y-34048D01*
X3409950Y12687D01*
X3300984Y-94246D02*
G01*
X3378961Y-94246D01*
X3394456Y-99580D01*
X3404870Y-109994D01*
X3409950Y-125488D01*
X3409950Y-135902D01*
X3404870Y-151396D01*
X3394456Y-161810D01*
X3378961Y-167144D01*
X3300984Y-167144D01*
X3300984Y-274078D02*
G01*
X3409950Y-201434D01*
X3300984Y-201434D02*
G01*
X3300984Y-274078D01*
X3409950Y-201434D02*
G01*
X3409950Y-274078D01*
X3300984Y-381012D02*
G01*
X3409950Y-308368D01*
X3300984Y-308368D02*
G01*
X3300984Y-381012D01*
X3409950Y-308368D02*
G01*
X3409950Y-381012D01*
X3300984Y-415302D02*
G01*
X3409950Y-415302D01*
X3300984Y-415302D02*
G01*
X3300984Y-482866D01*
X3352800Y-415302D02*
G01*
X3352800Y-456958D01*
X3409950Y-415302D02*
G01*
X3409950Y-482866D01*
X3300984Y-517156D02*
G01*
X3409950Y-517156D01*
X3300984Y-517156D02*
G01*
X3300984Y-563892D01*
X3306063Y-579640D01*
X3311397Y-584720D01*
X3321811Y-590054D01*
X3332225Y-590054D01*
X3342640Y-584720D01*
X3347720Y-579640D01*
X3352800Y-563892D01*
X3352800Y-517156D01*
X3352800Y-553732D02*
G01*
X3409950Y-590054D01*
X3321811Y-624344D02*
G01*
X3316477Y-634758D01*
X3300984Y-650252D01*
X3409950Y-650252D01*
X3835400Y392432D02*
G01*
X3939540Y392432D01*
X3887470Y444502D02*
G01*
X3887470Y340616D01*
X-4827015Y12687D02*
G01*
X-4718050Y12687D01*
X-4827015Y12687D02*
G01*
X-4827015Y-34048D01*
X-4821936Y-49542D01*
X-4816602Y-54876D01*
X-4806187Y-59956D01*
X-4795773Y-59956D01*
X-4785360Y-54876D01*
X-4780279Y-49542D01*
X-4775200Y-34048D01*
X-4775200Y12687D02*
G01*
X-4775200Y-34048D01*
X-4769865Y-49542D01*
X-4764786Y-54876D01*
X-4754371Y-59956D01*
X-4738623Y-59956D01*
X-4728210Y-54876D01*
X-4723129Y-49542D01*
X-4718050Y-34048D01*
X-4718050Y12687D01*
X-4827015Y-94246D02*
G01*
X-4749037Y-94246D01*
X-4733544Y-99580D01*
X-4723129Y-109994D01*
X-4718050Y-125488D01*
X-4718050Y-135902D01*
X-4723129Y-151396D01*
X-4733544Y-161810D01*
X-4749037Y-167144D01*
X-4827015Y-167144D01*
X-4827015Y-274078D02*
G01*
X-4718050Y-201434D01*
X-4827015Y-201434D02*
G01*
X-4827015Y-274078D01*
X-4718050Y-201434D02*
G01*
X-4718050Y-274078D01*
X-4827015Y-381012D02*
G01*
X-4718050Y-308368D01*
X-4827015Y-308368D02*
G01*
X-4827015Y-381012D01*
X-4718050Y-308368D02*
G01*
X-4718050Y-381012D01*
X-4827015Y-415302D02*
G01*
X-4718050Y-415302D01*
X-4827015Y-415302D02*
G01*
X-4827015Y-482866D01*
X-4775200Y-415302D02*
G01*
X-4775200Y-456958D01*
X-4718050Y-415302D02*
G01*
X-4718050Y-482866D01*
X-4827015Y-517156D02*
G01*
X-4718050Y-517156D01*
X-4827015Y-517156D02*
G01*
X-4827015Y-563892D01*
X-4821936Y-579640D01*
X-4816602Y-584720D01*
X-4806187Y-590054D01*
X-4795773Y-590054D01*
X-4785360Y-584720D01*
X-4780279Y-579640D01*
X-4775200Y-563892D01*
X-4775200Y-517156D01*
X-4775200Y-553732D02*
G01*
X-4718050Y-590054D01*
X-4801107Y-629424D02*
G01*
X-4806187Y-629424D01*
X-4816602Y-634758D01*
X-4821936Y-639838D01*
X-4827015Y-650252D01*
X-4827015Y-671080D01*
X-4821936Y-681494D01*
X-4816602Y-686574D01*
X-4806187Y-691908D01*
X-4795773Y-691908D01*
X-4785360Y-686574D01*
X-4769865Y-676160D01*
X-4718050Y-624344D01*
X-4718050Y-696988D01*
X-4292600Y392432D02*
G01*
X-4188460Y392432D01*
X-4240529Y444502D02*
G01*
X-4240529Y340616D01*
X-1900577Y1416845D02*
G01*
X-1822599Y1416845D01*
X-1807105Y1411765D01*
X-1796691Y1401351D01*
X-1791611Y1385603D01*
X-1791611Y1375189D01*
X-1796691Y1359695D01*
X-1807105Y1349281D01*
X-1822599Y1344201D01*
X-1900577Y1344201D01*
X-1900577Y1237013D02*
G01*
X-1791611Y1289083D01*
X-1900577Y1309911D02*
G01*
X-1900577Y1237013D01*
D11*
X-1748739Y3601239D02*
G01*
X-1554683Y3601239D01*
X-1748739Y3471953D02*
G01*
X-1554683Y3471953D01*
X-1656283Y3601239D02*
G01*
X-1656283Y3471953D01*
X-1748739Y3410993D02*
G01*
X-1554683Y3410993D01*
X-1748739Y3410993D02*
G01*
X-1748739Y3346223D01*
X-1739341Y3318537D01*
X-1720799Y3300249D01*
X-1702511Y3290851D01*
X-1674825Y3281707D01*
X-1628597Y3281707D01*
X-1600911Y3290851D01*
X-1582369Y3300249D01*
X-1563827Y3318537D01*
X-1554683Y3346223D01*
X-1554683Y3410993D01*
X-1748739Y3220747D02*
G01*
X-1554683Y3220747D01*
X-1748739Y3220747D02*
G01*
X-1554683Y3146833D01*
X-1748739Y3072919D02*
G01*
X-1554683Y3146833D01*
X-1748739Y3072919D02*
G01*
X-1554683Y3072919D01*
X-1748739Y3011959D02*
G01*
X-1554683Y3011959D01*
X-1748739Y680239D02*
G01*
X-1610055Y680239D01*
X-1582369Y671095D01*
X-1563827Y652553D01*
X-1554683Y624867D01*
X-1554683Y606325D01*
X-1563827Y578639D01*
X-1582369Y560097D01*
X-1610055Y550953D01*
X-1748739Y550953D01*
X-1720799Y360707D02*
G01*
X-1739341Y379249D01*
X-1748739Y406935D01*
X-1748739Y443765D01*
X-1739341Y471451D01*
X-1720799Y489993D01*
X-1702511Y489993D01*
X-1683969Y480849D01*
X-1674825Y471451D01*
X-1665427Y452909D01*
X-1647139Y397537D01*
X-1637741Y379249D01*
X-1628597Y369851D01*
X-1610055Y360707D01*
X-1582369Y360707D01*
X-1563827Y379249D01*
X-1554683Y406935D01*
X-1554683Y443765D01*
X-1563827Y471451D01*
X-1582369Y489993D01*
X-1748739Y299747D02*
G01*
X-1554683Y299747D01*
X-1748739Y299747D02*
G01*
X-1748739Y216689D01*
X-1739341Y188749D01*
X-1730197Y179605D01*
X-1711655Y170461D01*
X-1693113Y170461D01*
X-1674825Y179605D01*
X-1665427Y188749D01*
X-1656283Y216689D01*
X-1656283Y299747D02*
G01*
X-1656283Y216689D01*
X-1647139Y188749D01*
X-1637741Y179605D01*
X-1619199Y170461D01*
X-1591513Y170461D01*
X-1573225Y179605D01*
X-1563827Y188749D01*
X-1554683Y216689D01*
X-1554683Y299747D01*
X-1748739Y-577060D02*
G01*
X-1554683Y-577060D01*
X-1748739Y-577060D02*
G01*
X-1748739Y-660118D01*
X-1739341Y-687804D01*
X-1730197Y-697202D01*
X-1711655Y-706346D01*
X-1683969Y-706346D01*
X-1665427Y-697202D01*
X-1656283Y-687804D01*
X-1647139Y-660118D01*
X-1647139Y-577060D01*
X-1748739Y-767306D02*
G01*
X-1554683Y-813534D01*
X-1748739Y-859762D02*
G01*
X-1554683Y-813534D01*
X-1748739Y-859762D02*
G01*
X-1554683Y-905990D01*
X-1748739Y-951964D02*
G01*
X-1554683Y-905990D01*
X-1748739Y-1012924D02*
G01*
X-1554683Y-1012924D01*
X-1748739Y-1012924D02*
G01*
X-1748739Y-1096236D01*
X-1739341Y-1123922D01*
X-1730197Y-1133066D01*
X-1711655Y-1142210D01*
X-1693113Y-1142210D01*
X-1674825Y-1133066D01*
X-1665427Y-1123922D01*
X-1656283Y-1096236D01*
X-1656283Y-1012924D01*
X-1656283Y-1077694D02*
G01*
X-1554683Y-1142210D01*
D12*
X362457Y-4833396D02*
G01*
X385571Y-4844826D01*
X408686Y-4867940D01*
X420370Y-4891054D01*
X431800Y-4925852D01*
X431800Y-4983510D01*
X420370Y-5018054D01*
X408686Y-5041168D01*
X385571Y-5064282D01*
X362457Y-5075712D01*
X316229Y-5075712D01*
X293370Y-5064282D01*
X270255Y-5041168D01*
X258571Y-5018054D01*
X247142Y-4983510D01*
X247142Y-4925852D01*
X258571Y-4891054D01*
X270255Y-4867940D01*
X293370Y-4844826D01*
X316229Y-4833396D01*
X362457Y-4833396D01*
X170942Y-4833396D02*
G01*
X170942Y-5075712D01*
X170942Y-5075712D02*
G01*
X32257Y-5075712D01*
X-43942Y-4833396D02*
G01*
X-43942Y-5075712D01*
X-43942Y-4833396D02*
G01*
X-194055Y-4833396D01*
X-43942Y-4948712D02*
G01*
X-136144Y-4948712D01*
X-43942Y-5075712D02*
G01*
X-194055Y-5075712D01*
X-270255Y-4833396D02*
G01*
X-270255Y-5075712D01*
X-270255Y-4833396D02*
G01*
X-351028Y-4833396D01*
X-385571Y-4844826D01*
X-408686Y-4867940D01*
X-420370Y-4891054D01*
X-431800Y-4925852D01*
X-431800Y-4983510D01*
X-420370Y-5018054D01*
X-408686Y-5041168D01*
X-385571Y-5064282D01*
X-351028Y-5075712D01*
X-270255Y-5075712D01*
D10*
X533400Y-4228084D02*
G01*
X533400Y-4337050D01*
X533400Y-4337050D02*
G01*
X471170Y-4337050D01*
X436879Y-4228084D02*
G01*
X436879Y-4337050D01*
X436879Y-4228084D02*
G01*
X369315Y-4228084D01*
X436879Y-4279900D02*
G01*
X395223Y-4279900D01*
X436879Y-4337050D02*
G01*
X369315Y-4337050D01*
X335026Y-4228084D02*
G01*
X335026Y-4337050D01*
X335026Y-4228084D02*
G01*
X298450Y-4228084D01*
X282955Y-4233163D01*
X272542Y-4243578D01*
X267462Y-4253992D01*
X262128Y-4269739D01*
X262128Y-4295647D01*
X267462Y-4311142D01*
X272542Y-4321555D01*
X282955Y-4331970D01*
X298450Y-4337050D01*
X335026Y-4337050D01*
X222757Y-4253992D02*
G01*
X222757Y-4248912D01*
X217423Y-4238497D01*
X212344Y-4233163D01*
X201929Y-4228084D01*
X181102Y-4228084D01*
X170687Y-4233163D01*
X165607Y-4238497D01*
X160273Y-4248912D01*
X160273Y-4259326D01*
X165607Y-4269739D01*
X176021Y-4285234D01*
X227837Y-4337050D01*
X155194Y-4337050D01*
X-533400Y-4915915D02*
G01*
X-533400Y-4806950D01*
X-533400Y-4806950D02*
G01*
X-471170Y-4806950D01*
X-436879Y-4915915D02*
G01*
X-436879Y-4806950D01*
X-436879Y-4915915D02*
G01*
X-369315Y-4915915D01*
X-436879Y-4864100D02*
G01*
X-395223Y-4864100D01*
X-436879Y-4806950D02*
G01*
X-369315Y-4806950D01*
X-335026Y-4915915D02*
G01*
X-335026Y-4806950D01*
X-335026Y-4915915D02*
G01*
X-298450Y-4915915D01*
X-282955Y-4910836D01*
X-272542Y-4900421D01*
X-267462Y-4890007D01*
X-262128Y-4874260D01*
X-262128Y-4848352D01*
X-267462Y-4832857D01*
X-272542Y-4822444D01*
X-282955Y-4812029D01*
X-298450Y-4806950D01*
X-335026Y-4806950D01*
X-165607Y-4900421D02*
G01*
X-170687Y-4910836D01*
X-186436Y-4915915D01*
X-196850Y-4915915D01*
X-212344Y-4910836D01*
X-222757Y-4895087D01*
X-227837Y-4869179D01*
X-227837Y-4843271D01*
X-222757Y-4822444D01*
X-212344Y-4812029D01*
X-196850Y-4806950D01*
X-191515Y-4806950D01*
X-176021Y-4812029D01*
X-165607Y-4822444D01*
X-160273Y-4837937D01*
X-160273Y-4843271D01*
X-165607Y-4858765D01*
X-176021Y-4869179D01*
X-191515Y-4874260D01*
X-196850Y-4874260D01*
X-212344Y-4869179D01*
X-222757Y-4858765D01*
X-227837Y-4843271D01*
X-2604515Y-3327400D02*
G01*
X-2526537Y-3327400D01*
X-2511044Y-3332479D01*
X-2500629Y-3342894D01*
X-2495550Y-3358642D01*
X-2495550Y-3369055D01*
X-2500629Y-3384550D01*
X-2511044Y-3394963D01*
X-2526537Y-3400044D01*
X-2604515Y-3400044D01*
X-2568194Y-3501897D02*
G01*
X-2552700Y-3496818D01*
X-2542286Y-3486404D01*
X-2536952Y-3470910D01*
X-2536952Y-3465576D01*
X-2542286Y-3450081D01*
X-2552700Y-3439668D01*
X-2568194Y-3434334D01*
X-2573273Y-3434334D01*
X-2589021Y-3439668D01*
X-2599436Y-3450081D01*
X-2604515Y-3465576D01*
X-2604515Y-3470910D01*
X-2599436Y-3486404D01*
X-2589021Y-3496818D01*
X-2568194Y-3501897D01*
X-2542286Y-3501897D01*
X-2516123Y-3496818D01*
X-2500629Y-3486404D01*
X-2495550Y-3470910D01*
X-2495550Y-3460495D01*
X-2500629Y-3444747D01*
X-2511044Y-3439668D01*
X-2501900Y-902715D02*
G01*
X-2501900Y-824737D01*
X-2496820Y-809244D01*
X-2486405Y-798829D01*
X-2470657Y-793750D01*
X-2460244Y-793750D01*
X-2444750Y-798829D01*
X-2434336Y-809244D01*
X-2429255Y-824737D01*
X-2429255Y-902715D01*
X-2389631Y-876807D02*
G01*
X-2389631Y-881887D01*
X-2384552Y-892302D01*
X-2379218Y-897636D01*
X-2368804Y-902715D01*
X-2348229Y-902715D01*
X-2337815Y-897636D01*
X-2332481Y-892302D01*
X-2327402Y-881887D01*
X-2327402Y-871473D01*
X-2332481Y-861060D01*
X-2342895Y-845565D01*
X-2394965Y-793750D01*
X-2322068Y-793750D01*
D13*
X1504241Y4553676D02*
G01*
X1504241Y-1643860D01*
D14*
X1504408Y4553745D02*
G01*
X-1188158Y4553745D01*
X369036Y4431774D02*
G01*
X369036Y4754359D01*
D13*
X1174041Y-1948660D02*
G01*
X1199441Y-1948660D01*
X-1492958Y4248945D02*
G01*
X-1492958Y-1643860D01*
X-1188158Y-1948660D02*
G01*
X1174041Y-1948660D01*
D14*
X-731039Y4426689D02*
G01*
X-731039Y4761974D01*
X-676686Y4761974D01*
X369036Y4761974D01*
X369036Y4749274D01*
X1047041Y-1237460D02*
G01*
X1580441Y-1237460D01*
X1047041Y-450060D02*
G01*
X1047041Y-1237460D01*
X1580441Y-450060D02*
G01*
X1047041Y-450060D01*
X1047041Y32539D02*
G01*
X1580441Y32539D01*
X1047041Y819939D02*
G01*
X1047041Y32539D01*
X1580441Y819939D02*
G01*
X1047041Y819939D01*
X843841Y3842545D02*
G01*
X843841Y2801139D01*
X1580441Y2801139D01*
X-781758Y4426745D02*
G01*
X-781758Y4417336D01*
X-781758Y3283739D01*
X412041Y3283739D01*
X412041Y4426745D01*
X-781758Y4426745D02*
G01*
X412041Y4426745D01*
X1580441Y3842545D02*
G01*
X843841Y3842545D01*
X888997Y-3797300D02*
G01*
X888997Y-4051300D01*
X-888997Y-4051300D01*
X-888997Y-3797300D01*
X888997Y-3797300D01*
X804999Y-6554294D02*
G01*
X-595002Y-6554294D01*
X-595002Y-6554297D01*
X821959Y-6554294D02*
G01*
X804999Y-6554294D01*
X-595002Y-6554297D02*
G01*
X-1364998Y-6554297D01*
X-1364998Y-3774300D01*
X1364995Y-3774300D01*
X1364995Y-6554294D01*
X804999Y-6554294D01*
X804999Y-6554297D01*
X804999Y-6554297D02*
G01*
X804997Y-6265298D01*
X-595002Y-6265298D01*
X-595002Y-6554297D01*
X1334998Y-4201312D02*
G01*
X-1334998Y-4201312D01*
X-1334998Y-6127318D01*
X1334998Y-6127318D01*
X1334998Y-4201312D01*
X1086993Y-4411294D02*
G01*
X-1086993Y-4411294D01*
X-1086993Y-5497804D01*
X1086993Y-5497804D01*
X1086993Y-4411294D01*
X-2330399Y-2667000D02*
G01*
X-2330399Y-4117009D01*
X-1530400Y-4117009D01*
X-1530400Y-2667000D01*
X-2330399Y-2667000D01*
X-3263900Y-762000D02*
G01*
X-3263900Y1778000D01*
X-1739900Y1778000D01*
X-1739900Y-762000D01*
X-3263900Y-762000D01*
D13*
G75*
G01*
X1504241Y-1643860D02*
G02*
X1199441Y-1948660I-299960J-4840D01*
G75*
G01*
X-1492959Y4248940D02*
G02*
X-1188159Y4553740I299961J4840D01*
G75*
G01*
X-1188159Y-1948660D02*
G02*
X-1492959Y-1643860I-4839J299960D01*
D14*
G75*
G01
X4191000Y25D02*
G03X4191000Y25I-127000J0D01*
G75*
G01
X4663999Y25D02*
G03X4663999Y25I-599999J0D01*
G75*
G01
X-3937000Y25D02*
G03X-3937000Y25I-127000J0D01*
G75*
G01
X-3464001Y25D02*
G03X-3464001Y25I-599999J0D01*
G75*
G01
X-845744Y-1596390D02*
G03X-845744Y-1596390I-299974J0D01*
G75*
G01
X-845744Y4203700D02*
G03X-845744Y4203700I-299974J0D01*
M02*
